<?xml version="1.0" encoding="UTF-8"?>
<svg version="1.1" xmlns="http://www.w3.org/2000/svg" width="130" height="47">
<path d="M0 0 C0.84240234 0.02320312 1.68480469 0.04640625 2.55273438 0.0703125 C9.00683907 0.39327005 12.77307646 2.15487137 17.5625 6.625 C17.93375 7.0375 18.305 7.45 18.6875 7.875 C18.625625 6.92625 18.56375 5.9775 18.5 5 C18.5928125 3.453125 18.5928125 3.453125 18.6875 1.875 C22.98970515 -0.99313677 26.53233187 -0.22013391 31.5625 0.0625 C32.46097656 0.09408203 33.35945313 0.12566406 34.28515625 0.15820312 C41.94533368 0.54856667 45.81303345 3.00758486 51.6875 7.875 C52.739375 6.7303125 52.739375 6.7303125 53.8125 5.5625 C59.62346402 0.1305119 64.15375428 -0.45528147 71.8828125 -0.42578125 C74.64382471 -0.12968384 76.32815019 0.45826124 78.6875 1.875 C78.6875 2.535 78.6875 3.195 78.6875 3.875 C79.3475 3.875 80.0075 3.875 80.6875 3.875 C80.54519192 5.29202513 80.39849254 6.7086096 80.25 8.125 C80.12818359 9.30835938 80.12818359 9.30835938 80.00390625 10.515625 C79.71115007 12.69864639 79.26685581 14.7523182 78.6875 16.875 C78.00042969 16.77960937 77.31335938 16.68421875 76.60546875 16.5859375 C75.70441406 16.47507812 74.80335937 16.36421875 73.875 16.25 C72.53501953 16.07597656 72.53501953 16.07597656 71.16796875 15.8984375 C68.43059609 15.63999257 68.43059609 15.63999257 65.6875 17.875 C64.95406572 20.94056598 64.95406572 20.94056598 64.6875 23.875 C67.9875 23.215 71.2875 22.555 74.6875 21.875 C75.1825 23.36 75.1825 23.36 75.6875 24.875 C76.3475 24.875 77.0075 24.875 77.6875 24.875 C77.92597656 24.06546875 78.16445312 23.2559375 78.41015625 22.421875 C79.96489399 18.1047439 81.97672187 14.17167576 84.125 10.125 C84.71764648 8.97451172 84.71764648 8.97451172 85.32226562 7.80078125 C85.90331055 6.70056641 85.90331055 6.70056641 86.49609375 5.578125 C86.84470459 4.91458008 87.19331543 4.25103516 87.55249023 3.56738281 C88.6875 1.875 88.6875 1.875 91.6875 -0.125 C94.46484375 -0.4609375 94.46484375 -0.4609375 97.625 -0.5 C99.18541016 -0.54253906 99.18541016 -0.54253906 100.77734375 -0.5859375 C103.6875 -0.125 103.6875 -0.125 105.95703125 1.2109375 C108.70633196 5.44349525 108.90458839 9.92642281 109.4375 14.875 C109.56036377 15.90633057 109.68322754 16.93766113 109.80981445 18.00024414 C110.60407567 25.02239889 110.9779143 31.80825209 110.6875 38.875 C106.3975 38.875 102.1075 38.875 97.6875 38.875 C97.6875 38.215 97.6875 37.555 97.6875 36.875 C95.0475 36.215 92.4075 35.555 89.6875 34.875 C89.3575 36.195 89.0275 37.515 88.6875 38.875 C84.48034906 39.13094323 80.27205162 39.35000935 76.0625 39.5625 C74.87269531 39.63533203 73.68289062 39.70816406 72.45703125 39.78320312 C61.58545311 40.29945125 61.58545311 40.29945125 56.6875 36.875 C55.841875 36.318125 54.99625 35.76125 54.125 35.1875 C50.91913958 32.14604268 48.86551227 28.69347257 46.6875 24.875 C46.0275 25.535 45.3675 26.195 44.6875 26.875 C44.9040625 27.40609375 45.120625 27.9371875 45.34375 28.484375 C45.6221875 29.19078125 45.900625 29.8971875 46.1875 30.625 C46.4659375 31.32109375 46.744375 32.0171875 47.03125 32.734375 C47.6875 34.875 47.6875 34.875 47.6875 38.875 C43.0675 38.875 38.4475 38.875 33.6875 38.875 C33.6875 38.215 33.6875 37.555 33.6875 36.875 C33.0275 36.875 32.3675 36.875 31.6875 36.875 C31.3575 36.215 31.0275 35.555 30.6875 34.875 C30.3575 36.195 30.0275 37.515 29.6875 38.875 C25.0675 38.875 20.4475 38.875 15.6875 38.875 C15.6875 38.215 15.6875 37.555 15.6875 36.875 C14.33978516 37.36613281 14.33978516 37.36613281 12.96484375 37.8671875 C7.48443591 39.43301831 1.90006838 39.08718206 -3.75 39 C-4.86310547 38.99097656 -5.97621094 38.98195312 -7.12304688 38.97265625 C-9.85309023 38.9492224 -12.5826801 38.916414 -15.3125 38.875 C-15.3125 38.215 -15.3125 37.555 -15.3125 36.875 C-16.3025 36.875 -17.2925 36.875 -18.3125 36.875 C-17.69260591 32.72838675 -17.06565377 28.5828694 -16.4375 24.4375 C-16.26347656 23.27283203 -16.08945312 22.10816406 -15.91015625 20.90820312 C-13.85566213 7.40180659 -13.85566213 7.40180659 -12.3125 1.875 C-8.1201574 -0.91989507 -4.89940137 -0.26623162 0 0 Z " fill="#1D539A" transform="translate(19.3125,0.125)"/>
<path d="M0 0 C0.84240234 0.02320312 1.68480469 0.04640625 2.55273438 0.0703125 C9.00683907 0.39327005 12.77307646 2.15487137 17.5625 6.625 C17.93375 7.0375 18.305 7.45 18.6875 7.875 C18.625625 6.92625 18.56375 5.9775 18.5 5 C18.5928125 3.453125 18.5928125 3.453125 18.6875 1.875 C22.98970515 -0.99313677 26.53233187 -0.22013391 31.5625 0.0625 C32.46097656 0.09408203 33.35945313 0.12566406 34.28515625 0.15820312 C41.94533368 0.54856667 45.81303345 3.00758486 51.6875 7.875 C52.739375 6.7303125 52.739375 6.7303125 53.8125 5.5625 C59.62346402 0.1305119 64.15375428 -0.45528147 71.8828125 -0.42578125 C74.64382471 -0.12968384 76.32815019 0.45826124 78.6875 1.875 C78.6875 2.535 78.6875 3.195 78.6875 3.875 C79.3475 3.875 80.0075 3.875 80.6875 3.875 C80.3575 6.845 80.0275 9.815 79.6875 12.875 C79.3575 12.875 79.0275 12.875 78.6875 12.875 C78.1925 9.905 78.1925 9.905 77.6875 6.875 C77.0275 9.185 76.3675 11.495 75.6875 13.875 C74.6975 13.545 73.7075 13.215 72.6875 12.875 C68.02397717 12.39308417 68.02397717 12.39308417 63.875 14.125 C62.42661432 16.17649849 62.42661432 16.17649849 60.6875 19.875 C56.7275 19.875 52.7675 19.875 48.6875 19.875 C49.0175 16.575 49.3475 13.275 49.6875 9.875 C49.2234375 12.0715625 49.2234375 12.0715625 48.75 14.3125 C47.8125 18.75 47.8125 18.75 46.6875 19.875 C44.46894736 19.96283542 42.24761504 19.98194609 40.02734375 19.97265625 C39.03064415 19.97053383 39.03064415 19.97053383 38.0138092 19.96836853 C35.88416101 19.96275518 33.75461661 19.95020054 31.625 19.9375 C30.18424631 19.93248671 28.74349097 19.92792351 27.30273438 19.92382812 C23.76428898 19.91278145 20.22590461 19.89550792 16.6875 19.875 C16.6875 20.865 16.6875 21.855 16.6875 22.875 C16.0275 22.875 15.3675 22.875 14.6875 22.875 C14.77 23.761875 14.8525 24.64875 14.9375 25.5625 C14.62945788 29.64405809 13.54807917 31.01442083 10.6875 33.875 C7.60048715 35.77945454 5.30496527 36.11423738 1.703125 36.0703125 C0.76855469 36.06386719 -0.16601562 36.05742188 -1.12890625 36.05078125 C-2.58103516 36.02564453 -2.58103516 36.02564453 -4.0625 36 C-5.04605469 35.99097656 -6.02960937 35.98195312 -7.04296875 35.97265625 C-9.46639407 35.94912785 -11.88932222 35.91625368 -14.3125 35.875 C-14.3125 36.535 -14.3125 37.195 -14.3125 37.875 C-6.7225 37.875 0.8675 37.875 8.6875 37.875 C8.6875 38.205 8.6875 38.535 8.6875 38.875 C0.7675 38.875 -7.1525 38.875 -15.3125 38.875 C-15.3125 38.215 -15.3125 37.555 -15.3125 36.875 C-16.3025 36.875 -17.2925 36.875 -18.3125 36.875 C-17.69260591 32.72838675 -17.06565377 28.5828694 -16.4375 24.4375 C-16.26347656 23.27283203 -16.08945312 22.10816406 -15.91015625 20.90820312 C-13.85566213 7.40180659 -13.85566213 7.40180659 -12.3125 1.875 C-8.1201574 -0.91989507 -4.89940137 -0.26623162 0 0 Z " fill="#1D549A" transform="translate(19.3125,0.125)"/>
<path d="M0 0 C1.14210937 -0.02835938 2.28421875 -0.05671875 3.4609375 -0.0859375 C6.625 0.375 6.625 0.375 8.9296875 1.7109375 C11.63004765 5.95436059 11.84363884 10.44082019 12.375 15.375 C12.49786377 16.40633057 12.62072754 17.43766113 12.74731445 18.50024414 C13.54157567 25.52239889 13.9154143 32.30825209 13.625 39.375 C9.335 39.375 5.045 39.375 0.625 39.375 C0.625 38.715 0.625 38.055 0.625 37.375 C-2.015 36.715 -4.655 36.055 -7.375 35.375 C-7.705 36.695 -8.035 38.015 -8.375 39.375 C-12.64510907 39.60051667 -16.91601182 39.80247453 -21.1875 40 C-22.40244141 40.06445312 -23.61738281 40.12890625 -24.86914062 40.1953125 C-26.03251953 40.246875 -27.19589844 40.2984375 -28.39453125 40.3515625 C-29.46807861 40.40393066 -30.54162598 40.45629883 -31.64770508 40.51025391 C-34.375 40.375 -34.375 40.375 -37.375 38.375 C-33.745 38.705 -30.115 39.035 -26.375 39.375 C-26.87 37.89 -26.87 37.89 -27.375 36.375 C-26.715 36.375 -26.055 36.375 -25.375 36.375 C-25.2203125 34.4878125 -25.2203125 34.4878125 -25.0625 32.5625 C-24.72842189 29.86601243 -24.54522107 28.61182932 -22.9375 26.375 C-21.375 25.375 -21.375 25.375 -19.375 25.375 C-19.1378125 24.56546875 -18.900625 23.7559375 -18.65625 22.921875 C-17.09311165 18.59465054 -15.04776153 14.67202867 -12.875 10.625 C-12.47152344 9.85800781 -12.06804687 9.09101563 -11.65234375 8.30078125 C-8.44471047 2.27720588 -7.26281868 0.0816047 0 0 Z " fill="#1D5398" transform="translate(116.375,-0.375)"/>
<path d="M0 0 C2.74685508 0.10913431 5.49183776 0.22510172 8.23706055 0.37036133 C9.66308594 0.41773437 9.66308594 0.41773437 11.11791992 0.46606445 C16.1531288 0.7088523 19.83377254 0.95161632 23.92456055 4.18286133 C24.85268555 4.90473633 25.78081055 5.62661133 26.73706055 6.37036133 C27.45893555 6.96848633 28.18081055 7.56661133 28.92456055 8.18286133 C29.97643555 7.03817383 29.97643555 7.03817383 31.04956055 5.87036133 C36.86052456 0.43837322 41.39081483 -0.14742014 49.11987305 -0.11791992 C51.88088526 0.17817749 53.56521074 0.76612257 55.92456055 2.18286133 C55.92456055 2.84286133 55.92456055 3.50286133 55.92456055 4.18286133 C56.58456055 4.18286133 57.24456055 4.18286133 57.92456055 4.18286133 C57.59456055 7.15286133 57.26456055 10.12286133 56.92456055 13.18286133 C56.59456055 13.18286133 56.26456055 13.18286133 55.92456055 13.18286133 C55.42956055 10.21286133 55.42956055 10.21286133 54.92456055 7.18286133 C54.26456055 9.49286133 53.60456055 11.80286133 52.92456055 14.18286133 C51.93456055 13.85286133 50.94456055 13.52286133 49.92456055 13.18286133 C45.26103771 12.7009455 45.26103771 12.7009455 41.11206055 14.43286133 C39.66367487 16.48435981 39.66367487 16.48435981 37.92456055 20.18286133 C33.96456055 20.18286133 30.00456055 20.18286133 25.92456055 20.18286133 C26.25456055 16.88286133 26.58456055 13.58286133 26.92456055 10.18286133 C26.61518555 11.64723633 26.30581055 13.11161133 25.98706055 14.62036133 C25.04956055 19.05786133 25.04956055 19.05786133 23.92456055 20.18286133 C21.7060079 20.27069675 19.48467558 20.28980742 17.2644043 20.28051758 C16.2677047 20.27839516 16.2677047 20.27839516 15.25086975 20.27622986 C13.12122156 20.27061651 10.99167715 20.25806187 8.86206055 20.24536133 C7.42130685 20.24034804 5.98055152 20.23578484 4.53979492 20.23168945 C1.00134953 20.22064278 -2.53703484 20.20336925 -6.07543945 20.18286133 C-6.07543945 21.17286133 -6.07543945 22.16286133 -6.07543945 23.18286133 C-6.73543945 23.18286133 -7.39543945 23.18286133 -8.07543945 23.18286133 C-8.40543945 22.19286133 -8.73543945 21.20286133 -9.07543945 20.18286133 C-8.58430664 19.78454102 -8.09317383 19.3862207 -7.5871582 18.97583008 C-5.64360521 16.67068583 -5.75890345 15.46318942 -5.88793945 12.49536133 C-5.91500977 11.68711914 -5.94208008 10.87887695 -5.9699707 10.04614258 C-6.00477539 9.43125977 -6.03958008 8.81637695 -6.07543945 8.18286133 C-5.41543945 8.18286133 -4.75543945 8.18286133 -4.07543945 8.18286133 C-4.11668945 7.23411133 -4.15793945 6.28536133 -4.20043945 5.30786133 C-4.06003489 1.7977472 -3.70761741 0.32666809 0 0 Z " fill="#E53D3A" transform="translate(42.075439453125,-0.182861328125)"/>
<path d="M0 0 C0.84240234 0.02320312 1.68480469 0.04640625 2.55273438 0.0703125 C8.11775968 0.34878132 11.44149213 1.18927616 15.6875 4.875 C17.00230454 8.81941361 16.28026781 12.12010395 14.6875 15.875 C12.52464394 18.56973156 11.39729081 19.75775214 7.93847656 20.32910156 C6.91206055 20.3081543 5.88564453 20.28720703 4.828125 20.265625 C3.71308594 20.25273437 2.59804688 20.23984375 1.44921875 20.2265625 C-0.28908203 20.17628906 -0.28908203 20.17628906 -2.0625 20.125 C-3.23683594 20.10695313 -4.41117188 20.08890625 -5.62109375 20.0703125 C-8.5190534 20.0231912 -11.41536418 19.95741305 -14.3125 19.875 C-14.6425 21.195 -14.9725 22.515 -15.3125 23.875 C-15.45197942 18.75411282 -14.97725991 14.08912404 -14 9.0625 C-13.88205078 8.39541016 -13.76410156 7.72832031 -13.64257812 7.04101562 C-13.26171875 5.10546875 -13.26171875 5.10546875 -12.3125 1.875 C-8.1201574 -0.91989507 -4.89940137 -0.26623162 0 0 Z " fill="#DD3D3A" transform="translate(19.3125,0.125)"/>
<path d="M0 0 C0.33 0 0.66 0 1 0 C1 3.63 1 7.26 1 11 C-1.50651042 10.67447917 -4.01302083 10.34895833 -6.51953125 10.0234375 C-9.25690391 9.76499257 -9.25690391 9.76499257 -12 12 C-12.73343428 15.06556598 -12.73343428 15.06556598 -13 18 C-9.7 17.34 -6.4 16.68 -3 16 C-3 20.52747222 -3.28436732 22.24988472 -5 26.1875 C-6.52235864 29.48478684 -6.52235864 29.48478684 -7 33 C-19.86979061 32.78995891 -19.86979061 32.78995891 -23.5 30.0625 C-26.78707518 26.03583291 -28.91868686 21.74281533 -31 17 C-30.01 15.515 -30.01 15.515 -29 14 C-25.93252781 13.6204279 -22.93698618 13.62408495 -19.84765625 13.6015625 C-16.79853934 13.28965185 -16.79853934 13.28965185 -15.24609375 10.5859375 C-14.83488281 9.73257812 -14.42367187 8.87921875 -14 8 C-12 6 -12 6 -8.5 5.8125 C-5 6 -5 6 -3 7 C-2.01 4.69 -1.02 2.38 0 0 Z " fill="#225699" transform="translate(97,6)"/>
<path d="M0 0 C1.73056641 -0.02513672 1.73056641 -0.02513672 3.49609375 -0.05078125 C6.5625 0.3125 6.5625 0.3125 8.23583984 1.58447266 C9.85158172 3.68904038 9.91466554 4.69982752 9.85546875 7.32421875 C9.84580078 8.08154297 9.83613281 8.83886719 9.82617188 9.61914062 C9.80103516 10.40482422 9.77589844 11.19050781 9.75 12 C9.72969727 13.19592773 9.72969727 13.19592773 9.70898438 14.41601562 C9.67367089 16.38179967 9.61986447 18.34723582 9.5625 20.3125 C5.9325 20.3125 2.3025 20.3125 -1.4375 20.3125 C-1.7675 18.9925 -2.0975 17.6725 -2.4375 16.3125 C-2.6540625 16.9621875 -2.870625 17.611875 -3.09375 18.28125 C-3.5371875 18.9515625 -3.980625 19.621875 -4.4375 20.3125 C-7.2963334 20.84191359 -10.00234805 20.81318261 -12.90625 20.84375 C-13.7415625 20.9984375 -14.576875 21.153125 -15.4375 21.3125 C-16.84371918 23.24712987 -16.84371918 23.24712987 -17.4375 25.3125 C-18.0975 25.3125 -18.7575 25.3125 -19.4375 25.3125 C-17.8871676 20.02114811 -15.53199988 15.39506687 -12.9375 10.5625 C-12.53402344 9.79550781 -12.13054687 9.02851563 -11.71484375 8.23828125 C-8.48217547 2.16769297 -7.31749311 0.02447322 0 0 Z " fill="#DB3E3B" transform="translate(116.4375,-0.3125)"/>
<path d="M0 0 C0.80824219 0.48533203 0.80824219 0.48533203 1.6328125 0.98046875 C1.6328125 1.64046875 1.6328125 2.30046875 1.6328125 2.98046875 C2.2928125 2.98046875 2.9528125 2.98046875 3.6328125 2.98046875 C3.3028125 5.95046875 2.9728125 8.92046875 2.6328125 11.98046875 C2.3028125 11.98046875 1.9728125 11.98046875 1.6328125 11.98046875 C1.1378125 9.01046875 1.1378125 9.01046875 0.6328125 5.98046875 C-0.0271875 8.29046875 -0.6871875 10.60046875 -1.3671875 12.98046875 C-2.3571875 12.65046875 -3.3471875 12.32046875 -4.3671875 11.98046875 C-9.03071033 11.49855292 -9.03071033 11.49855292 -13.1796875 13.23046875 C-14.62807318 15.28196724 -14.62807318 15.28196724 -16.3671875 18.98046875 C-20.3271875 18.98046875 -24.2871875 18.98046875 -28.3671875 18.98046875 C-28.1196875 17.41296875 -27.8721875 15.84546875 -27.6171875 14.23046875 C-27.09594241 9.97640688 -27.09594241 9.97640688 -29.3046875 6.35546875 C-29.9853125 5.90171875 -30.6659375 5.44796875 -31.3671875 4.98046875 C-31.0371875 4.32046875 -30.7071875 3.66046875 -30.3671875 2.98046875 C-27.8921875 4.96046875 -27.8921875 4.96046875 -25.3671875 6.98046875 C-24.6659375 6.21734375 -23.9646875 5.45421875 -23.2421875 4.66796875 C-16.98048054 -1.18536601 -8.22032643 -3.54043762 0 0 Z " fill="#E3403C" transform="translate(96.3671875,1.01953125)"/>
<path d="M0 0 C0.8353125 0.2784375 0.8353125 0.2784375 1.6875 0.5625 C4.4472086 1.08460703 6.24952578 0.562597 9 0 C11.67325028 -0.09435001 14.3233531 -0.04317172 17 0 C17.99 0 18.98 0 20 0 C30 0 40 0 50 0 C50 1.98 50 3.96 50 6 C32.84 6 15.68 6 -2 6 C-1.34 4.02 -0.68 2.04 0 0 Z " fill="#747474" transform="translate(80,41)"/>
<path d="M0 0 C1.25159912 0.00523682 2.50319824 0.01047363 3.79272461 0.01586914 C4.78942421 0.01799156 4.78942421 0.01799156 5.80625916 0.02015686 C7.93590735 0.02577021 10.06545175 0.03832485 12.19506836 0.05102539 C13.63582205 0.05603868 15.07657739 0.06060188 16.51733398 0.06469727 C20.05577938 0.07574394 23.59416375 0.09301747 27.13256836 0.11352539 C27.13256836 2.09352539 27.13256836 4.07352539 27.13256836 6.11352539 C16.90256836 6.11352539 6.67256836 6.11352539 -3.86743164 6.11352539 C-3.86743164 0.15311671 -3.86743164 0.15311671 0 0 Z " fill="#707070" transform="translate(3.867431640625,40.886474609375)"/>
<path d="M0 0 C0.928125 0.165 1.85625 0.33 2.8125 0.5 C5.87977477 0.98114114 7.1196705 0.74331084 10 0 C11.2065625 0.2475 11.2065625 0.2475 12.4375 0.5 C15.30677352 1.05985825 17.16577814 0.58137884 20 0 C22.3125 0.4375 22.3125 0.4375 24 1 C24.5625 2.9375 24.5625 2.9375 25 5 C24 6 24 6 21.59155273 6.11352539 C20.54942627 6.10828857 19.5072998 6.10305176 18.43359375 6.09765625 C17.30888672 6.09443359 16.18417969 6.09121094 15.02539062 6.08789062 C13.84138672 6.07951172 12.65738281 6.07113281 11.4375 6.0625 C10.24962891 6.05798828 9.06175781 6.05347656 7.83789062 6.04882812 C4.89187774 6.03699675 1.94596319 6.02051287 -1 6 C-1.042721 4.33388095 -1.04063832 2.66617115 -1 1 C-0.67 0.67 -0.34 0.34 0 0 Z " fill="#525252" transform="translate(34,41)"/>
<path d="M0 0 C0.68383255 0.00424484 1.3676651 0.00848969 2.07221985 0.01286316 C4.25297686 0.02963522 6.43280434 0.06728218 8.61328125 0.10546875 C10.0930856 0.12051761 11.57290445 0.13420567 13.05273438 0.14648438 C16.67738461 0.17953306 20.30149219 0.23130429 23.92578125 0.29296875 C23.59578125 1.28296875 23.26578125 2.27296875 22.92578125 3.29296875 C13.02578125 3.29296875 3.12578125 3.29296875 -7.07421875 3.29296875 C-7.07421875 4.28296875 -7.07421875 5.27296875 -7.07421875 6.29296875 C-7.73421875 6.29296875 -8.39421875 6.29296875 -9.07421875 6.29296875 C-9.40421875 5.30296875 -9.73421875 4.31296875 -10.07421875 3.29296875 C-7.34874536 -0.52445521 -4.43595216 -0.05431778 0 0 Z " fill="#F8D5D4" transform="translate(43.07421875,16.70703125)"/>
<path d="M0 0 C0.66 0 1.32 0 2 0 C1.48041715 4.37934119 0.94324258 8.68803391 0 13 C-0.99 13 -1.98 13 -3 13 C-3 13.66 -3 14.32 -3 15 C-11.58 15 -20.16 15 -29 15 C-29 14.34 -29 13.68 -29 13 C-28.39526855 12.9906543 -27.79053711 12.98130859 -27.16748047 12.97167969 C-24.4025212 12.91768278 -21.63920094 12.83409606 -18.875 12.75 C-17.92367188 12.73582031 -16.97234375 12.72164062 -15.9921875 12.70703125 C-10.10991831 12.50278579 -6.40012699 12.05725995 -2 8 C-0.88783971 5.92789308 -0.88783971 5.92789308 -0.625 3.75 C-0.315625 1.89375 -0.315625 1.89375 0 0 Z " fill="#020B16" transform="translate(34,23)"/>
<path d="M0 0 C1.58206057 0.00667536 3.16410534 0.0186375 4.74609375 0.03515625 C5.55240234 0.03966797 6.35871094 0.04417969 7.18945312 0.04882812 C9.18753131 0.06065107 11.18557158 0.07858711 13.18359375 0.09765625 C12.19359375 0.75765625 11.20359375 1.41765625 10.18359375 2.09765625 C9.85359375 3.41765625 9.52359375 4.73765625 9.18359375 6.09765625 C4.56359375 6.09765625 -0.05640625 6.09765625 -4.81640625 6.09765625 C-4.81640625 0.12324479 -4.81640625 0.12324479 0 0 Z " fill="#757575" transform="translate(4.81640625,40.90234375)"/>
<path d="M0 0 C0.33 1.32 0.66 2.64 1 4 C9.25 4 17.5 4 26 4 C25.67 4.99 25.34 5.98 25 7 C16.75 7 8.5 7 0 7 C-0.33 8.32 -0.66 9.64 -1 11 C-1.14285714 3.57142857 -1.14285714 3.57142857 0 0 Z " fill="#CCC0CC" transform="translate(5,13)"/>
<path d="M0 0 C0.33 0 0.66 0 1 0 C1 3.63 1 7.26 1 11 C-1.47395833 10.64192708 -3.94791667 10.28385417 -6.421875 9.92578125 C-9.60370915 10.01737951 -10.75326202 10.7941118 -13 13 C-13.8042208 15.59855733 -13.8042208 15.59855733 -14 18 C-14.66 17.67 -15.32 17.34 -16 17 C-16.48076923 10.75 -16.48076923 10.75 -14.4375 7.5625 C-11.14629634 5.45275406 -8.83614957 5.64480097 -5 6 C-4.34 6.33 -3.68 6.66 -3 7 C-2.01 4.69 -1.02 2.38 0 0 Z " fill="#494241" transform="translate(97,6)"/>
<path d="M0 0 C1.06347656 -0.00773437 2.12695312 -0.01546875 3.22265625 -0.0234375 C4.11855469 0.10804687 5.01445313 0.23953125 5.9375 0.375 C6.5975 1.365 7.2575 2.355 7.9375 3.375 C7.6075 4.365 7.2775 5.355 6.9375 6.375 C1.9875 6.375 -2.9625 6.375 -8.0625 6.375 C-8.3925 5.385 -8.7225 4.395 -9.0625 3.375 C-6.44330869 -0.07466661 -4.18948037 -0.03054299 0 0 Z " fill="#656565" transform="translate(69.0625,40.625)"/>
<path d="M0 0 C1.37478516 0.01740234 1.37478516 0.01740234 2.77734375 0.03515625 C3.69644531 0.04417969 4.61554688 0.05320313 5.5625 0.0625 C6.27277344 0.07410156 6.98304688 0.08570313 7.71484375 0.09765625 C7.71484375 2.07765625 7.71484375 4.05765625 7.71484375 6.09765625 C4.08484375 6.09765625 0.45484375 6.09765625 -3.28515625 6.09765625 C-3.28515625 0.14039129 -3.28515625 0.14039129 0 0 Z " fill="#6F6F6F" transform="translate(122.28515625,40.90234375)"/>
<path d="M0 0 C2.97 0 5.94 0 9 0 C9 0.66 9 1.32 9 2 C6.69 2 4.38 2 2 2 C2 3.32 2 4.64 2 6 C-2.62 6 -7.24 6 -12 6 C-12 5.34 -12 4.68 -12 4 C-8.37 4 -4.74 4 -1 4 C-0.67 2.68 -0.34 1.36 0 0 Z " fill="#020B16" transform="translate(107,32)"/>
<path d="M0 0 C3.3 0 6.6 0 10 0 C10.33 1.98 10.66 3.96 11 6 C8.03 6 5.06 6 2 6 C2 4.35 2 2.7 2 1 C1.34 0.67 0.68 0.34 0 0 Z " fill="#808080" transform="translate(108,41)"/>
<path d="M0 0 C0.66 0 1.32 0 2 0 C3.51403812 4.84492197 2.36602172 8.2591011 1 13 C-2.96 13 -6.92 13 -11 13 C-11 12.34 -11 11.68 -11 11 C-7.7 11 -4.4 11 -1 11 C-0.67 7.37 -0.34 3.74 0 0 Z " fill="#010913" transform="translate(47,25)"/>
<path d="M0 0 C0.33 0.66 0.66 1.32 1 2 C4.63 2 8.26 2 12 2 C11.67 2.99 11.34 3.98 11 5 C10.22914062 5.02578125 9.45828125 5.0515625 8.6640625 5.078125 C7.66117188 5.13484375 6.65828125 5.1915625 5.625 5.25 C4.62726563 5.29640625 3.62953125 5.3428125 2.6015625 5.390625 C-0.1526477 5.72160885 -0.1526477 5.72160885 -1.3515625 8.046875 C-1.56554687 8.69140625 -1.77953125 9.3359375 -2 10 C-2.66 10 -3.32 10 -4 10 C-2.8905928 6.51329166 -1.73662334 3.22515763 0 0 Z " fill="#B8B5C4" transform="translate(101,15)"/>
<path d="M0 0 C0.28875 0.61875 0.5775 1.2375 0.875 1.875 C1.93720042 4.13325765 1.93720042 4.13325765 4 6 C7.12196336 6.46486718 7.12196336 6.46486718 10.625 6.625 C11.81351563 6.69976562 13.00203125 6.77453125 14.2265625 6.8515625 C15.14179687 6.90054688 16.05703125 6.94953125 17 7 C17 7.33 17 7.66 17 8 C12.72989093 8.22551667 8.45898818 8.42747453 4.1875 8.625 C2.97255859 8.68945312 1.75761719 8.75390625 0.50585938 8.8203125 C-0.65751953 8.871875 -1.82089844 8.9234375 -3.01953125 8.9765625 C-4.09307861 9.02893066 -5.16662598 9.08129883 -6.27270508 9.13525391 C-9 9 -9 9 -12 7 C-8.37 7.33 -4.74 7.66 -1 8 C-1.33 7.01 -1.66 6.02 -2 5 C-1.34 5 -0.68 5 0 5 C0 3.35 0 1.7 0 0 Z " fill="#6A6E74" transform="translate(91,31)"/>
<path d="M0 0 C0.33 0.66 0.66 1.32 1 2 C10.57 2 20.14 2 30 2 C30 2.33 30 2.66 30 3 C20.1 3 10.2 3 0 3 C0 3.99 0 4.98 0 6 C-0.66 6 -1.32 6 -2 6 C-2.33 5.01 -2.66 4.02 -3 3 C-2.01 2.01 -1.02 1.02 0 0 Z " fill="#94ABC8" transform="translate(36,17)"/>
<path d="M0 0 C3.375 -0.125 3.375 -0.125 7 0 C7.66 0.66 8.32 1.32 9 2 C8.625 4.125 8.625 4.125 8 6 C5.69 6 3.38 6 1 6 C1.33 4.35 1.66 2.7 2 1 C1.34 0.67 0.68 0.34 0 0 Z " fill="#979897" transform="translate(50,41)"/>
<path d="M0 0 C0.66 0 1.32 0 2 0 C1.48041715 4.37934119 0.94324258 8.68803391 0 13 C-0.99 13 -1.98 13 -3 13 C-3 13.66 -3 14.32 -3 15 C-3.99 15 -4.98 15 -6 15 C-6 13.68 -6 12.36 -6 11 C-5.195625 10.21625 -4.39125 9.4325 -3.5625 8.625 C-0.65865078 5.65032519 -0.28360997 4.0650762 0 0 Z " fill="#142133" transform="translate(34,23)"/>
<path d="M0 0 C4.29 0 8.58 0 13 0 C12.67 0.99 12.34 1.98 12 3 C8.04 3 4.08 3 0 3 C0 2.01 0 1.02 0 0 Z " fill="#D3C6CF" transform="translate(68,17)"/>
<path d="M0 0 C1.67542976 0.28604898 3.34385343 0.61781233 5 1 C5.33 1.99 5.66 2.98 6 4 C5.67 4.66 5.34 5.32 5 6 C3.02 6 1.04 6 -1 6 C-1.042721 4.33388095 -1.04063832 2.66617115 -1 1 C-0.67 0.67 -0.34 0.34 0 0 Z " fill="#6A6B6B" transform="translate(34,41)"/>
<path d="M0 0 C0 0.33 0 0.66 0 1 C-1.98 1.33 -3.96 1.66 -6 2 C-6.99 5.3 -7.98 8.6 -9 12 C-9.66 11.67 -10.32 11.34 -11 11 C-11.48076923 4.75 -11.48076923 4.75 -9.4375 1.5625 C-6.18129203 -0.5248128 -3.79004984 -0.2915423 0 0 Z " fill="#281515" transform="translate(92,12)"/>
<path d="M0 0 C0.66 0.33 1.32 0.66 2 1 C2.36391205 8.39954511 2.36391205 8.39954511 0.75 11.0625 C-1 12 -1 12 -3.1875 11.6875 C-3.785625 11.460625 -4.38375 11.23375 -5 11 C-4.360625 10.29875 -3.72125 9.5975 -3.0625 8.875 C-0.83613898 5.77158767 -0.34919057 3.75379861 0 0 Z " fill="#160C0C" transform="translate(35,8)"/>
<path d="M0 0 C2.97 0.495 2.97 0.495 6 1 C6 2.65 6 4.3 6 6 C3.69 6 1.38 6 -1 6 C-0.67 4.02 -0.34 2.04 0 0 Z " fill="#494949" transform="translate(104,41)"/>
<path d="M0 0 C1.67542976 0.28604898 3.34385343 0.61781233 5 1 C5 2.65 5 4.3 5 6 C3.02 6 1.04 6 -1 6 C-1.042721 4.33388095 -1.04063832 2.66617115 -1 1 C-0.67 0.67 -0.34 0.34 0 0 Z " fill="#606060" transform="translate(1,41)"/>
<path d="M0 0 C3.63 0 7.26 0 11 0 C11 0.99 11 1.98 11 3 C7.37 3 3.74 3 0 3 C0 2.01 0 1.02 0 0 Z " fill="#CEC1CE" transform="translate(115,17)"/>
<path d="M0 0 C1.98 0.66 3.96 1.32 6 2 C6 2.66 6 3.32 6 4 C6.66 4 7.32 4 8 4 C7.67 6.97 7.34 9.94 7 13 C6.67 13 6.34 13 6 13 C5.87625 12.0925 5.7525 11.185 5.625 10.25 C4.90878022 6.35353592 4.90878022 6.35353592 3 3 C0.44480079 2.18828772 0.44480079 2.18828772 -2 2 C-1.34 1.34 -0.68 0.68 0 0 Z " fill="#9E7372" transform="translate(92,0)"/>
<path d="M0 0 C2 3 2 3 2 7 C-1.96 7 -5.92 7 -10 7 C-10 6.34 -10 5.68 -10 5 C-6.7 5 -3.4 5 0 5 C0 3.35 0 1.7 0 0 Z " fill="#080F17" transform="translate(128,31)"/>
<path d="M0 0 C1.65 0 3.3 0 5 0 C5 1.98 5 3.96 5 6 C3.35 6 1.7 6 0 6 C0 4.02 0 2.04 0 0 Z " fill="#666767" transform="translate(26,41)"/>
<path d="M0 0 C1 3 1 3 0 6 C-1.65 6 -3.3 6 -5 6 C-5.33 5.01 -5.66 4.02 -6 3 C-3.375 0 -3.375 0 0 0 Z " fill="#7C7D7D" transform="translate(66,41)"/>
<path d="M0 0 C0.66 0.33 1.32 0.66 2 1 C1.71831703 2.95979427 1.42433283 4.91782378 1.125 6.875 C0.96257812 7.96554688 0.80015625 9.05609375 0.6328125 10.1796875 C0 13 0 13 -2 15 C-2.99 14.67 -3.98 14.34 -5 14 C-4.360625 12.989375 -3.72125 11.97875 -3.0625 10.9375 C-0.93151044 7.24780076 -0.34460387 4.22139745 0 0 Z " fill="#170909" transform="translate(68,9)"/>
<path d="M0 0 C0.66 0.33 1.32 0.66 2 1 C2 1.99 2 2.98 2 4 C-1.96 4 -5.92 4 -10 4 C-10 3.34 -10 2.68 -10 2 C-6.7 2 -3.4 2 0 2 C0 1.34 0 0.68 0 0 Z " fill="#040D19" transform="translate(64,34)"/>
<path d="M0 0 C1.98 0 3.96 0 6 0 C6 1.65 6 3.3 6 5 C4.35 5 2.7 5 1 5 C0.67 3.35 0.34 1.7 0 0 Z " fill="#4C4C4C" transform="translate(14,42)"/>
<path d="M0 0 C2.97 0 5.94 0 9 0 C9 0.66 9 1.32 9 2 C6.69 2 4.38 2 2 2 C1.67 3.32 1.34 4.64 1 6 C0.34 5.34 -0.32 4.68 -1 4 C-0.67 2.68 -0.34 1.36 0 0 Z " fill="#1C2025" transform="translate(107,32)"/>
<path d="M0 0 C0.99 0 1.98 0 3 0 C3 1.98 3 3.96 3 6 C1.35 6 -0.3 6 -2 6 C-1.34 4.02 -0.68 2.04 0 0 Z " fill="#515151" transform="translate(80,41)"/>
<path d="M0 0 C1.9451 2.91765 2.45276317 4.62537285 3 8 C1.68 8.33 0.36 8.66 -1 9 C-1.33 7.02 -1.66 5.04 -2 3 C-1.34 3 -0.68 3 0 3 C0 2.01 0 1.02 0 0 Z " fill="#44638B" transform="translate(63,27)"/>
<path d="M0 0 C0.66 0 1.32 0 2 0 C2.95024979 3.69541586 2.95024979 6.30458414 2 10 C1.01 10.33 0.02 10.66 -1 11 C-0.67 7.37 -0.34 3.74 0 0 Z " fill="#071222" transform="translate(47,25)"/>
<path d="M0 0 C0 1.65 0 3.3 0 5 C1.32 5.33 2.64 5.66 4 6 C1.36 6 -1.28 6 -4 6 C-3.625 3.5625 -3.625 3.5625 -3 1 C-1 0 -1 0 0 0 Z " fill="#BF7573" transform="translate(56,11)"/>
<path d="M0 0 C0.33 0 0.66 0 1 0 C1.33 4.62 1.66 9.24 2 14 C1.01 13.67 0.02 13.34 -1 13 C-0.67 8.71 -0.34 4.42 0 0 Z " fill="#7A7D82" transform="translate(128,20)"/>
<path d="M0 0 C0.99 0.33 1.98 0.66 3 1 C4.56118428 1.06740865 6.1250252 1.08514456 7.6875 1.0625 C8.49574219 1.05347656 9.30398437 1.04445312 10.13671875 1.03515625 C10.75160156 1.02355469 11.36648437 1.01195312 12 1 C12 1.66 12 2.32 12 3 C6.06 3.495 6.06 3.495 0 4 C-0.33 3.34 -0.66 2.68 -1 2 C-0.67 1.34 -0.34 0.68 0 0 Z " fill="#13509E" transform="translate(93,33)"/>
<path d="M0 0 C0.33 0 0.66 0 1 0 C1 2.64 1 5.28 1 8 C-0.32 8.33 -1.64 8.66 -3 9 C-2.01 6.03 -1.02 3.06 0 0 Z " fill="#1E1316" transform="translate(114,14)"/>
<path d="M0 0 C2.64 0 5.28 0 8 0 C8 0.66 8 1.32 8 2 C5.03 2.66 2.06 3.32 -1 4 C-0.67 2.68 -0.34 1.36 0 0 Z " fill="#3F3939" transform="translate(86,13)"/>
<path d="M0 0 C1.32 0.66 2.64 1.32 4 2 C4.33 1.34 4.66 0.68 5 0 C5.66 1.32 6.32 2.64 7 4 C4.36 4 1.72 4 -1 4 C-0.67 2.68 -0.34 1.36 0 0 Z " fill="#212121" transform="translate(85,43)"/>
<path d="M0 0 C0 1.65 0 3.3 0 5 C-1.65 5 -3.3 5 -5 5 C-5 3.68 -5 2.36 -5 1 C-1.125 0 -1.125 0 0 0 Z " fill="#2C2C2C" transform="translate(130,42)"/>
<path d="M0 0 C2.475 0.495 2.475 0.495 5 1 C4.67 2.32 4.34 3.64 4 5 C2.68 5 1.36 5 0 5 C0 3.35 0 1.7 0 0 Z " fill="#434343" transform="translate(72,42)"/>
<path d="M0 0 C3.00617269 3.00617269 2.59585316 5.82381598 3 10 C2.34 10 1.68 10 1 10 C-1.56687367 6.1496895 -0.83288724 4.41430237 0 0 Z " fill="#56769F" transform="translate(50,27)"/>
<path d="M0 0 C2.475 0.495 2.475 0.495 5 1 C4.34 1.66 3.68 2.32 3 3 C2.3574765 5.06874034 2.3574765 5.06874034 2 7 C1.34 7 0.68 7 0 7 C0 4.69 0 2.38 0 0 Z " fill="#1E0807" transform="translate(50,10)"/>
<path d="M0 0 C0.99 0.99 1.98 1.98 3 3 C2.8125 6.625 2.8125 6.625 2 10 C1.01 10.495 1.01 10.495 0 11 C0 7.37 0 3.74 0 0 Z " fill="#D95451" transform="translate(33,4)"/>
<path d="M0 0 C2 0 4 0 6 0 C5.67 1.32 5.34 2.64 5 4 C3.35 4 1.7 4 0 4 C0 2.68 0 1.36 0 0 Z " fill="#4F4F4F" transform="translate(53,43)"/>
<path d="M0 0 C0.33 0 0.66 0 1 0 C0.74438677 2.3431213 0.40729228 4.67843403 0 7 C-0.99 7.495 -0.99 7.495 -2 8 C-2.125 5.125 -2.125 5.125 -2 2 C-1.34 1.34 -0.68 0.68 0 0 Z " fill="#0A0D12" transform="translate(94,26)"/>
</svg>
